<mxfile host="app.diagrams.net" modified="2024-01-03T22:47:41.401Z" agent="Mozilla/5.0 (X11; Ubuntu; Linux x86_64; rv:120.0) Gecko/20100101 Firefox/120.0" version="22.1.16" etag="poDFCZs2e2ZG9aY_3Flk" type="github">
  <diagram name="Page-1" id="0o8xM_WpgTqi2gxL_CJA">
    <mxGraphModel>
      <root>
        <mxCell id="0" />
        <mxCell id="1" parent="0" />
      </root>
    </mxGraphModel>
  </diagram>
</mxfile>
